HIERARCHY
ROOT Hips
{
	OFFSET 0.000000 0.000000 0.000000 
	CHANNELS 6 Xposition Yposition Zposition Zrotation Yrotation Xrotation
	JOINT LHipJoint
	{
		OFFSET 0.000000 0.000000 0.000000 
		CHANNELS 3 Zrotation Yrotation Xrotation
		JOINT LeftHip
		{
			OFFSET 1.363060 -1.794630 0.839290 
			CHANNELS 3 Zrotation Yrotation Xrotation
			JOINT LeftKnee
			{
				OFFSET 2.448110 -6.726130 0.000000 
				CHANNELS 3 Zrotation Yrotation Xrotation
				JOINT LeftAnkle
				{
					OFFSET 2.562200 -7.039590 0.000000 
					CHANNELS 3 Zrotation Yrotation Xrotation
					JOINT LeftToe
					{
						OFFSET 0.157640 -0.433110 2.322550 
						CHANNELS 3 Zrotation Yrotation Xrotation
						End Site
						{
							OFFSET 0.000000 -0.000000 1.189660 
						}
					}
				}
			}
		}
	}
	JOINT RHipJoint
	{
		OFFSET 0.000000 0.000000 0.000000 
		CHANNELS 3 Zrotation Yrotation Xrotation
		JOINT RightHip
		{
			OFFSET -1.305520 -1.794630 0.839290 
			CHANNELS 3 Zrotation Yrotation Xrotation
			JOINT RightKnee
			{
				OFFSET -2.542530 -6.985550 0.000000 
				CHANNELS 3 Zrotation Yrotation Xrotation
				JOINT RightAnkle
				{
					OFFSET -2.568260 -7.056230 0.000000 
					CHANNELS 3 Zrotation Yrotation Xrotation
					JOINT RightToe
					{
						OFFSET -0.164730 -0.452590 2.363150 
						CHANNELS 3 Zrotation Yrotation Xrotation
						End Site
						{
							OFFSET -0.000000 -0.000000 1.210820 
						}
					}
				}
			}
		}
	}
	JOINT lowerback
	{
		OFFSET 0.000000 0.000000 0.000000 
		CHANNELS 3 Zrotation Yrotation Xrotation
		JOINT Chest
		{
			OFFSET 0.028270 2.035590 -0.193380 
			CHANNELS 3 Zrotation Yrotation Xrotation
			JOINT Chest2
			{
				OFFSET 0.056720 2.048850 -0.042750 
				CHANNELS 3 Zrotation Yrotation Xrotation
				JOINT lowerneck
				{
					OFFSET 0.000000 0.000000 0.000000 
					CHANNELS 3 Zrotation Yrotation Xrotation
					JOINT Neck
					{
						OFFSET -0.054170 10.946237 0.172020 
						CHANNELS 3 Zrotation Yrotation Xrotation
						JOINT Head
						{
							OFFSET 0.104070 1.761360 -0.123970 
							CHANNELS 3 Zrotation Yrotation Xrotation
							End Site
							{
								OFFSET 0.037200 1.770440 -0.062410 
							}
						}
					}
				}
				JOINT LeftCollar
				{
					OFFSET 0.000000 0.000000 0.000000 
					CHANNELS 3 Zrotation Yrotation Xrotation
					JOINT LeftShoulder
					{
						OFFSET 3.362410 1.200890 -0.311210 
						CHANNELS 3 Zrotation Xrotation Yrotation
						JOINT LeftElbow
						{
							OFFSET 0.000000 -4.983000 -0.000000 
							CHANNELS 3 Zrotation Xrotation Yrotation
							JOINT LeftWrist
							{
								OFFSET 0.000000 -3.483560 -0.000000 
								CHANNELS 3 Zrotation Xrotation Yrotation
								JOINT lhand
								{
									OFFSET 0.000000 0.000000 0.000000 
									CHANNELS 3 Zrotation Xrotation Yrotation
									JOINT LFingers
									{
										OFFSET 0.000000 -0.715260 -0.000000 
										CHANNELS 3 Zrotation Xrotation Yrotation
										End Site
										{
											OFFSET 0.000000 -0.576660 -0.000000 
										}
									}
								}
								JOINT LThumb
								{
									OFFSET 0.000000 0.000000 0.000000 
									CHANNELS 3 Zrotation Xrotation Yrotation
									End Site
									{
										OFFSET 0.000000 -0.585470 0.585470 
									}
								}
							}
						}
					}
				}
				JOINT RightCollar
				{
					OFFSET 0.000000 0.000000 0.000000 
					CHANNELS 3 Zrotation Yrotation Xrotation
					JOINT RightShoulder
					{
						OFFSET -3.136600 1.374050 -0.404650 
						CHANNELS 3 Zrotation Xrotation Yrotation
						JOINT RightElbow
						{
							OFFSET 0.000000 -5.241900 -0.000000 
							CHANNELS 3 Zrotation Xrotation Yrotation
							JOINT RightWrist
							{
								OFFSET 0.000000 -3.444170 -0.000000 
								CHANNELS 3 Zrotation Xrotation Yrotation
								JOINT rhand
								{
									OFFSET 0.000000 0.000000 0.000000 
									CHANNELS 3 Zrotation Xrotation Yrotation
									JOINT RFingers
									{
										OFFSET 0.000000 -0.622530 -0.000000 
										CHANNELS 3 Zrotation Xrotation Yrotation
										End Site
										{
											OFFSET 0.000000 -0.501900 -0.000000 
										}
									}
								}
								JOINT RThumb
								{
									OFFSET 0.000000 0.000000 0.000000 
									CHANNELS 3 Zrotation Xrotation Yrotation
									End Site
									{
										OFFSET 0.000000 -0.509560 0.509560 
									}
								}
							}
						}
					}
				}
			}
		}
	}
}
MOTION
Frames: 5
Frame Time: 0.008333
21.753799 17.822399 25.958099 2.557700 -127.070999 -360.774994 0.000000 0.000000 0.000000 -23.738800 3.412800 9.511300 0.563100 4.806100 13.356300 -0.230400 -16.664700 -9.251100 0.767200 5.593300 15.608800 0.000000 0.000000 0.000000 13.179400 9.648000 -25.795700 -0.772900 -5.613600 15.667400 -0.254200 1.786500 -9.068500 -0.369900 3.906400 -10.813500 -3.930600 2.358700 11.806400 3.209300 2.701100 1.342600 5.170200 1.408500 -5.555900 -0.105600 6.812300 -4.902400 -2.742900 9.060500 -1.156200 -0.638400 4.483300 0.573700 0.000000 0.000000 0.000000 4.078600 -2.695500 -29.356300 28.625099 -39.685398 10.520500 17.740101 -9.218300 11.198200 0.000000 0.000000 0.000000 -7.125000 0.000000 0.000000 -6.584400 18.282400 -4.214400 0.000000 0.000000 0.000000 -6.715700 0.322500 8.007000 -12.847100 -21.062799 -2.398100 -19.579700 -2.391700 20.848101 0.000000 0.000000 0.000000 7.125000 0.000000 -0.000000 9.180800 51.759602 -1.539000 
21.663700 17.819401 25.879999 2.812000 -127.007004 -360.803986 0.000000 0.000000 0.000000 -23.608500 3.132800 9.970100 0.545400 4.731500 13.144500 -0.224300 -16.321400 -9.018700 0.842300 5.854200 16.362000 0.000000 0.000000 0.000000 13.415100 9.924400 -26.088600 -0.802200 -5.716500 15.964000 -0.147100 2.559000 -6.811400 -0.356200 3.834200 -10.610700 -3.774600 2.382100 11.756600 3.412700 2.762500 1.308600 5.288900 1.437500 -5.574900 -0.313400 6.951000 -4.591000 -3.003200 9.252100 -1.253800 -0.693500 4.580800 0.497900 0.000000 0.000000 0.000000 3.947900 -2.265900 -29.095400 28.483900 -39.557899 10.430400 17.041300 -10.348300 11.605200 0.000000 0.000000 0.000000 -7.125000 0.000000 0.000000 -7.075800 17.911800 -4.591900 0.000000 0.000000 0.000000 -7.158700 0.222000 8.194600 -12.861200 -21.083500 -2.403100 -19.084999 -2.240300 21.561001 0.000000 0.000000 0.000000 7.125000 0.000000 -0.000000 9.929300 52.401402 -1.823500 
21.569599 17.813900 25.799900 3.029700 -126.844002 -360.901001 0.000000 0.000000 0.000000 -23.627600 2.520300 10.683800 0.533700 4.681200 13.001400 -0.152200 -15.557300 -9.215300 0.809700 5.742500 16.039000 0.000000 0.000000 0.000000 13.655900 10.061600 -26.240499 -0.840400 -5.847500 16.342699 -0.054500 2.878200 -4.321100 -0.411800 4.119500 -11.413100 -3.445300 2.479600 11.774400 3.391000 2.930700 1.331000 5.047500 1.510700 -5.563700 0.066600 6.993200 -4.521500 -3.348300 9.291200 -1.287400 -0.859800 4.596800 0.514000 0.000000 -0.000000 0.000000 4.299500 -1.405400 -29.282301 29.184601 -40.184200 10.879600 16.050900 -10.249100 11.390300 0.000000 0.000000 0.000000 -7.125000 0.000000 0.000000 -7.769500 18.202900 -4.999900 0.000000 -0.000000 0.000000 -7.104800 0.089900 7.800500 -12.869600 -21.095900 -2.406200 -18.729900 -2.134600 21.796301 0.000000 0.000000 0.000000 7.125000 0.000000 -0.000000 10.372100 52.577499 -1.951200 
21.468000 17.802299 25.713699 2.842900 -126.581001 -360.808014 0.000000 0.000000 0.000000 -23.880199 2.051600 11.375100 0.541000 4.712600 13.090500 -0.098400 -15.002800 -9.405400 0.728000 5.451500 15.200800 0.000000 0.000000 0.000000 13.682900 9.931400 -26.131800 -0.879400 -5.978200 16.721201 0.006100 3.386600 -2.056300 -0.388000 3.999700 -11.075900 -3.328000 2.500100 11.755900 3.262000 2.963800 1.422600 4.838400 1.518000 -5.446800 0.403300 7.100600 -4.638000 -3.475800 9.430600 -1.051100 -0.939400 4.661700 0.633200 0.000000 -0.000000 0.000000 4.833900 -0.748000 -30.007799 29.520100 -40.478500 11.096800 15.898500 -10.701900 10.448900 0.000000 0.000000 0.000000 -7.125000 0.000000 0.000000 -7.885300 19.179600 -4.903500 0.000000 -0.000000 0.000000 -7.044000 -0.212300 7.793700 -12.741100 -20.906601 -2.360100 -18.895599 -2.475900 21.058800 0.000000 0.000000 0.000000 7.125000 0.000000 -0.000000 9.932500 51.856300 -1.690700 
21.366699 17.796499 25.623100 2.776800 -126.279999 -360.725006 0.000000 0.000000 0.000000 -23.931101 1.749100 11.793300 0.560000 4.793300 13.319900 -0.106300 -14.859800 -9.196800 0.762100 5.575100 15.556500 0.000000 0.000000 0.000000 13.627100 10.322400 -25.906500 -0.929500 -6.141600 17.195801 0.032500 3.768100 -0.749700 -0.412500 4.122600 -11.422000 -3.343600 2.454700 11.624200 3.322800 2.905600 1.463400 4.926100 1.486700 -5.328100 0.300400 7.281500 -4.887100 -3.406300 9.701000 -0.469800 -0.873300 4.790500 0.852500 -0.000000 -0.000000 0.000000 3.528500 -2.765800 -26.932301 26.112499 -37.319599 8.955700 15.852300 -8.215800 11.031300 0.000000 0.000000 0.000000 -7.125000 0.000000 0.000000 -7.911500 18.584801 -5.025600 -0.000000 -0.000000 0.000000 -7.343500 -0.555900 8.387200 -12.514000 -20.570999 -2.279700 -18.980700 -2.320300 20.650299 0.000000 0.000000 0.000000 7.125000 0.000000 -0.000000 9.702800 51.454800 -1.554900 
